name rise35.5848peak51.9257fall54.8793.mot
datacolumns 19
datarows 12
range 12.26828100000000 12.28661700000000
endheader
time	ground_force1_vx	ground_force1_vy	ground_force1_vz	ground_force1_px	ground_force1_py	ground_force1_pz	ground_force2_vx	ground_force2_vy	ground_force2_vz	ground_force2_px	ground_force2_py	ground_force2_pz	ground_torque1_x	ground_torque1_y	ground_torque1_z	ground_torque2_x	ground_torque2_y	ground_torque2_z	
12.26828100000000	6.29409000000000	715.50929900000006	40.39552200000000	0.19628000000000	0.00000000000000	0.12847300000000	0.00000000000000	0.00000000000000	0.00000000000000	0.00000000000000	0.00000000000000	0.00000000000000	0.00000000000000	13.25114100000000	0.00000000000000	0.00000000000000	0.00000000000000	0.00000000000000	
12.26995200000000	5.90442000000000	716.46221900000000	40.42757800000000	0.19532500000000	0.00000000000000	0.12845500000000	0.00000000000000	0.00000000000000	0.00000000000000	0.00000000000000	0.00000000000000	0.00000000000000	0.00000000000000	13.29031000000000	0.00000000000000	0.00000000000000	0.00000000000000	0.00000000000000	
12.27161500000000	5.51005400000000	717.42447000000004	40.46394400000000	0.19435900000000	0.00000000000000	0.12843800000000	0.00000000000000	0.00000000000000	0.00000000000000	0.00000000000000	0.00000000000000	0.00000000000000	0.00000000000000	13.33302500000000	0.00000000000000	0.00000000000000	0.00000000000000	0.00000000000000	
12.27328100000000	5.11107800000000	718.39454799999999	40.50444300000000	0.19338400000000	0.00000000000000	0.12842200000000	0.00000000000000	0.00000000000000	0.00000000000000	0.00000000000000	0.00000000000000	0.00000000000000	0.00000000000000	13.37923600000000	0.00000000000000	0.00000000000000	0.00000000000000	0.00000000000000	
12.27495100000000	4.70759900000000	719.37102200000004	40.54890400000000	0.19240100000000	0.00000000000000	0.12840700000000	0.00000000000000	0.00000000000000	0.00000000000000	0.00000000000000	0.00000000000000	0.00000000000000	0.00000000000000	13.42889100000000	0.00000000000000	0.00000000000000	0.00000000000000	0.00000000000000	
12.27661500000000	4.29974500000000	720.35254099999997	40.59715900000000	0.19141100000000	0.00000000000000	0.12839200000000	0.00000000000000	0.00000000000000	0.00000000000000	0.00000000000000	0.00000000000000	0.00000000000000	0.00000000000000	13.48193700000000	0.00000000000000	0.00000000000000	0.00000000000000	0.00000000000000	
12.27827800000000	3.88766200000000	721.33783200000005	40.64904800000000	0.19041500000000	0.00000000000000	0.12837800000000	0.00000000000000	0.00000000000000	0.00000000000000	0.00000000000000	0.00000000000000	0.00000000000000	0.00000000000000	13.53831800000000	0.00000000000000	0.00000000000000	0.00000000000000	0.00000000000000	
12.27995300000000	3.47151700000000	722.32570599999997	40.70441300000000	0.18941400000000	0.00000000000000	0.12836400000000	0.00000000000000	0.00000000000000	0.00000000000000	0.00000000000000	0.00000000000000	0.00000000000000	0.00000000000000	13.59797200000000	0.00000000000000	0.00000000000000	0.00000000000000	0.00000000000000	
12.28161600000000	3.05149300000000	723.31505700000002	40.76310400000000	0.18841000000000	0.00000000000000	0.12835100000000	0.00000000000000	0.00000000000000	0.00000000000000	0.00000000000000	0.00000000000000	0.00000000000000	0.00000000000000	13.66083700000000	0.00000000000000	0.00000000000000	0.00000000000000	0.00000000000000	
12.28329100000000	2.62778800000000	724.30486399999995	40.82497600000000	0.18740200000000	0.00000000000000	0.12833800000000	0.00000000000000	0.00000000000000	0.00000000000000	0.00000000000000	0.00000000000000	0.00000000000000	0.00000000000000	13.72684600000000	0.00000000000000	0.00000000000000	0.00000000000000	0.00000000000000	
12.28494500000000	2.20061600000000	725.29418999999996	40.88988900000000	0.18639400000000	0.00000000000000	0.12832500000000	0.00000000000000	0.00000000000000	0.00000000000000	0.00000000000000	0.00000000000000	0.00000000000000	0.00000000000000	13.79592900000000	0.00000000000000	0.00000000000000	0.00000000000000	0.00000000000000	
12.28661700000000	1.77020500000000	726.28218700000002	40.95771000000000	0.18538400000000	0.00000000000000	0.12831300000000	0.00000000000000	0.00000000000000	0.00000000000000	0.00000000000000	0.00000000000000	0.00000000000000	0.00000000000000	13.86801100000000	0.00000000000000	0.00000000000000	0.00000000000000	0.00000000000000	
